<svg width="552" height="486" viewBox="0 0 552 486" fill="none" xmlns="http://www.w3.org/2000/svg">
<path d="M0.685316 147.1C7.39107 71.5457 69.414 8.77467 144.561 1.48822C151.968 0.770506 158.386 0.105099 158.821 0.0100382C159.257 -0.0850231 166.387 0.505949 174.667 1.32189C204.036 4.22126 229.062 13.184 253.8 29.6613C266.078 37.8413 267.905 38.5717 276.076 38.5717C284.248 38.5717 286.075 37.8413 298.353 29.6613C331.465 7.60547 368.37 -2.01481 406.287 1.52622C469.654 7.44537 523.874 50.9948 544.548 112.572C549.887 128.475 552.033 143.212 552 163.746C551.908 220.179 527.766 260.208 442.566 345.185C417.532 370.153 387.662 398.356 311.462 468.968C295.412 483.842 288.439 486.896 273.063 485.797C265.477 485.253 260.247 483.884 256.024 481.338C246.414 475.541 40.6044 270.299 30.4349 256.372C7.42111 224.853 -2.86404 187.077 0.685316 147.1Z" fill="#8C03C5"/>
</svg>
