<svg width="575" height="420" viewBox="0 0 575 420" fill="none" xmlns="http://www.w3.org/2000/svg">
<path d="M2.67319 64.2564C11.2442 34.5912 34.4411 11.1005 63.773 2.38138C70.9858 0.237604 77.1833 -0.285476 90.4056 0.132631C110.399 0.765271 120.681 3.93949 136.093 14.2403C148.98 22.8545 276.834 145.46 284.438 156.498C292.721 168.52 298.002 183.995 299.092 199.452C300.277 216.216 297.744 228.871 289.967 245.073C283.918 257.674 281.736 260.093 214.908 328.252C177.053 366.862 143.774 400.207 140.957 402.353C120.375 418.033 88.04 424.187 63.773 417.046C33.8396 408.236 8.62321 382.047 1.79273 352.673C-0.906564 341.068 -0.49935 319.521 2.62136 308.713C8.12335 289.663 13.3356 282.64 50.0651 244.775C69.2359 225.011 84.9225 208.367 84.9225 207.788C84.9225 207.208 69.9424 192.277 51.6317 174.605C15.9049 140.126 9.43161 131.78 3.30925 112.301C-0.779639 99.2928 -1.07261 77.2177 2.67319 64.2564Z" fill="#0D68AF"/>
<path d="M278.532 64.7654C286.198 35.0485 312.18 9.34504 342.275 1.70794C347.453 0.39568 356.517 -0.15711 366.915 0.207755C385.99 0.877978 397.58 4.30592 411.181 13.3023C419.566 18.8473 532.272 125.364 551.339 145.762C568.957 164.61 576.101 184.173 574.864 210.173C573.993 228.449 570.391 239.586 560.582 254.323C552.038 267.16 423.119 398.181 411.344 405.992C396.843 415.613 382.933 419.725 364.565 419.822C352.699 419.883 346.223 419.075 337.866 416.487C309.67 407.754 285.919 382.84 278.444 354.158C277.128 349.103 276.06 338.599 276.071 330.813C276.096 314.237 281.355 296.619 290.138 283.687C293.031 279.428 310.474 260.684 328.901 242.035L362.403 208.127L330.066 177.086C289.831 138.46 284.202 131.009 278.177 108.394C275.339 97.7504 275.513 76.4693 278.532 64.7654Z" fill="#0D68AF"/>
</svg>
