<svg width="630" height="630" viewBox="0 0 630 630" fill="none" xmlns="http://www.w3.org/2000/svg">
<path d="M302.655 8.08029C307.93 -1.78233 322.07 -1.78235 327.345 8.08027L386.618 118.898C389.767 124.784 396.634 127.629 403.024 125.693L523.296 89.2457C534 86.002 543.998 96.0001 540.754 106.704L504.307 226.976C502.371 233.366 505.216 240.233 511.102 243.382L621.92 302.655C631.782 307.93 631.782 322.07 621.92 327.345L511.102 386.618C505.216 389.767 502.371 396.634 504.307 403.024L540.754 523.296C543.998 534 534 543.998 523.296 540.754L403.024 504.307C396.634 502.371 389.767 505.216 386.618 511.102L327.345 621.92C322.07 631.782 307.93 631.782 302.655 621.92L243.382 511.102C240.233 505.216 233.366 502.371 226.976 504.307L106.704 540.754C96.0002 543.998 86.002 534 89.2457 523.296L125.693 403.024C127.629 396.634 124.784 389.767 118.898 386.618L8.08029 327.345C-1.78233 322.07 -1.78235 307.93 8.08027 302.655L118.898 243.382C124.784 240.233 127.629 233.366 125.693 226.976L89.2457 106.704C86.002 96.0002 96.0001 86.002 106.704 89.2457L226.976 125.693C233.366 127.629 240.233 124.784 243.382 118.898L302.655 8.08029Z" fill="#E23C54"/>
</svg>
